<?xml version="1.0" standalone="no"?>
<!DOCTYPE svg PUBLIC "-//W3C//DTD SVG 20010904//EN"
 "http://www.w3.org/TR/2001/REC-SVG-20010904/DTD/svg10.dtd">
<svg version="1.0" xmlns="http://www.w3.org/2000/svg"
 width="900.000000pt" height="512.000000pt" viewBox="0 0 900.000000 512.000000"
 preserveAspectRatio="xMidYMid meet">

<g transform="translate(0.000000,512.000000) scale(0.100000,-0.100000)"
fill="#000000" stroke="none">
<path d="M4807 4349 c-409 -36 -775 -241 -1019 -573 -75 -101 -179 -313 -213
-429 -45 -158 -58 -274 -52 -452 9 -235 54 -406 163 -613 30 -57 54 -105 54
-106 0 -2 -12 -6 -27 -9 -16 -3 -57 -23 -92 -44 -52 -31 -143 -122 -505 -506
-242 -258 -442 -472 -444 -477 -5 -14 209 -208 254 -229 78 -37 193 -23 292
35 53 31 103 82 526 531 l328 349 81 -54 c144 -96 299 -162 477 -203 112 -26
361 -36 478 -20 427 61 801 305 1022 666 220 360 264 816 117 1222 -136 376
-461 698 -840 833 -195 69 -402 97 -600 79z m289 -384 c687 -120 1061 -854
753 -1478 -222 -450 -744 -674 -1224 -526 -165 51 -293 126 -413 243 -231 223
-343 527 -311 844 13 131 41 228 98 347 202 414 651 647 1097 570z"/>
</g>
</svg>
