<?xml version="1.0" standalone="no"?>
<!DOCTYPE svg PUBLIC "-//W3C//DTD SVG 20010904//EN"
 "http://www.w3.org/TR/2001/REC-SVG-20010904/DTD/svg10.dtd">
<svg version="1.0" xmlns="http://www.w3.org/2000/svg"
 width="512.000000pt" height="512.000000pt" viewBox="0 0 512.000000 512.000000"
 preserveAspectRatio="xMidYMid meet">

<g transform="translate(0.000000,512.000000) scale(0.100000,-0.100000)"
fill="#000000" stroke="none">
<path d="M1836 5104 c-127 -31 -263 -137 -325 -253 -47 -89 -61 -158 -61 -303
l0 -128 -357 0 c-344 0 -358 -1 -401 -21 -127 -62 -138 -248 -20 -326 l42 -28
1846 0 1846 0 42 28 c118 78 107 264 -20 326 -43 20 -57 21 -401 21 l-357 0 0
128 c0 82 -5 149 -15 187 -47 178 -199 328 -375 369 -93 22 -1353 22 -1444 0z
m1383 -382 c56 -30 71 -71 71 -189 l0 -103 -730 0 -730 0 0 103 c0 118 15 159
71 189 32 17 72 18 659 18 587 0 627 -1 659 -18z"/>
<path d="M1115 3840 c-76 -12 -158 -47 -223 -94 -74 -55 -114 -103 -157 -191
-68 -136 -71 -48 64 -1655 67 -789 125 -1459 131 -1488 26 -144 140 -292 275
-359 100 -49 58 -48 1355 -48 1297 0 1255 -1 1355 48 135 67 249 216 275 359
6 29 64 699 131 1488 135 1607 132 1518 64 1656 -61 125 -155 209 -291 262
l-69 27 -1430 1 c-786 1 -1452 -2 -1480 -6z m2882 -396 c15 -11 36 -36 45 -55
17 -33 14 -78 -102 -1459 -66 -784 -122 -1436 -125 -1450 -8 -36 -38 -68 -79
-85 -53 -22 -2299 -22 -2352 0 -41 17 -71 49 -79 85 -3 14 -59 666 -125 1449
-104 1240 -117 1428 -106 1455 17 40 47 66 88 76 18 5 657 7 1420 7 1384 -2
1387 -2 1415 -23z"/>
<path d="M1640 2914 c-77 -33 -110 -91 -110 -191 0 -37 25 -428 54 -868 57
-856 54 -832 113 -886 41 -39 68 -50 121 -50 58 -1 98 14 135 49 44 42 58 77
58 147 0 108 -102 1638 -112 1677 -27 105 -156 167 -259 122z"/>
<path d="M2485 2917 c-40 -19 -85 -65 -101 -104 -12 -26 -14 -189 -14 -888 0
-747 2 -860 15 -892 20 -48 41 -71 89 -95 104 -53 235 2 266 111 8 24 10 318
8 897 l-3 860 -24 36 c-38 55 -84 81 -149 85 -34 2 -69 -2 -87 -10z"/>
<path d="M3325 2911 c-50 -22 -91 -70 -104 -119 -10 -39 -112 -1569 -112
-1677 0 -121 74 -197 193 -196 53 0 80 11 121 50 59 54 56 30 113 886 29 440
54 831 54 868 0 101 -34 159 -113 192 -48 20 -103 19 -152 -4z"/>
</g>
</svg>
