<?xml version="1.0" standalone="no"?>
<!DOCTYPE svg PUBLIC "-//W3C//DTD SVG 20010904//EN"
 "http://www.w3.org/TR/2001/REC-SVG-20010904/DTD/svg10.dtd">
<svg version="1.0" xmlns="http://www.w3.org/2000/svg"
 width="640.000000pt" height="787.000000pt" viewBox="0 0 640.000000 787.000000"
 preserveAspectRatio="xMidYMid meet">

<g transform="translate(0.000000,787.000000) scale(0.100000,-0.100000)"
fill="#000000" stroke="none">
<path d="M695 7859 c-191 -28 -371 -129 -502 -282 -63 -73 -145 -233 -170
-332 -17 -66 -18 -237 -18 -3310 0 -3132 1 -3242 19 -3310 79 -299 298 -518
596 -597 l85 -23 2495 0 2495 0 85 23 c299 79 513 293 592 592 l23 85 0 2690
c0 2580 -1 2693 -18 2755 -26 92 -88 206 -149 275 -98 110 -1243 1228 -1303
1272 -80 60 -202 117 -305 145 l-85 23 -1890 1 c-1044 1 -1917 -2 -1950 -7z
m3864 -272 c142 -39 183 -69 501 -378 162 -158 453 -444 646 -636 300 -296
356 -358 385 -413 l34 -65 3 -2675 c1 -1852 -1 -2691 -8 -2726 -39 -189 -204
-359 -397 -409 -50 -13 -371 -15 -2523 -15 -2180 0 -2473 2 -2524 15 -187 49
-334 193 -394 386 -15 50 -17 293 -20 3199 -1 1944 1 3178 7 3231 12 104 39
185 86 256 91 138 231 223 395 243 36 4 893 7 1905 6 1712 -2 1844 -3 1904
-19z"/>
<path d="M2932 6329 c-90 -46 -122 -132 -122 -332 0 -225 36 -422 123 -663
l44 -121 -72 -189 c-99 -259 -177 -446 -303 -727 l-107 -239 -227 -114 c-352
-176 -485 -260 -609 -383 -102 -102 -140 -190 -118 -277 27 -105 143 -174 272
-160 258 27 486 237 827 764 l105 162 195 64 c191 63 379 113 592 157 l107 22
46 -39 c285 -239 600 -366 875 -351 220 12 329 111 299 271 -23 123 -118 199
-304 242 -123 29 -439 27 -693 -5 -113 -14 -196 -20 -201 -15 -104 118 -360
460 -434 581 l-56 91 49 189 c64 246 86 360 100 515 33 348 -70 562 -277 575
-56 4 -76 0 -111 -18z m145 -89 c57 -34 68 -62 71 -185 3 -80 -2 -145 -17
-236 -38 -220 -107 -483 -121 -458 -5 8 -24 68 -44 133 -52 173 -79 337 -80
486 0 110 2 131 23 178 42 94 101 123 168 82z m117 -1363 c73 -112 208 -291
310 -412 42 -49 76 -93 76 -96 0 -3 -60 -18 -132 -33 -196 -40 -316 -71 -480
-123 -82 -25 -151 -44 -154 -41 -3 3 4 24 15 46 33 64 225 548 260 655 18 53
36 97 39 96 4 0 34 -41 66 -92z m1297 -545 c54 -21 105 -65 128 -109 29 -57 2
-139 -60 -186 -79 -58 -238 -29 -509 92 -131 58 -321 173 -308 186 2 3 74 14
159 24 219 28 509 24 590 -7z m-2115 -454 c-97 -164 -302 -426 -414 -530 -67
-62 -188 -128 -234 -128 -37 0 -82 23 -102 52 -21 29 -20 91 1 136 24 52 123
146 231 221 79 53 511 288 535 290 5 1 -3 -18 -17 -41z"/>
<path d="M1910 1731 l0 -601 100 0 100 0 0 235 0 235 88 0 c243 1 352 52 421
200 23 49 26 67 26 165 0 98 -3 116 -27 167 -38 81 -98 143 -166 170 -52 20
-77 22 -299 26 l-243 4 0 -601z m446 426 c78 -41 111 -210 62 -307 -34 -65
-78 -84 -205 -88 l-103 -4 0 212 0 212 108 -4 c74 -3 117 -9 138 -21z"/>
<path d="M2810 1731 l0 -601 168 0 c272 0 362 24 466 121 75 69 127 161 157
276 31 115 31 319 1 426 -53 187 -143 293 -297 348 -53 20 -86 23 -277 27
l-218 4 0 -601z m400 424 c64 -21 111 -64 147 -132 44 -83 57 -151 57 -288 0
-133 -13 -202 -55 -286 -55 -110 -143 -159 -286 -159 l-73 0 0 438 c0 241 3
442 8 446 10 11 149 -2 202 -19z"/>
<path d="M3820 1730 l0 -600 100 0 100 0 0 265 0 265 185 0 185 0 0 75 0 75
-185 0 -185 0 0 185 0 185 235 0 235 0 0 75 0 75 -335 0 -335 0 0 -600z"/>
</g>
</svg>
